<?xml version="1.0" standalone="no"?>
<!DOCTYPE svg PUBLIC "-//W3C//DTD SVG 1.1//EN" "http://www.w3.org/Graphics/SVG/1.1/DTD/svg11.dtd">
<svg xmlns="http://www.w3.org/2000/svg" width="68.41100311279297" height="61.652000427246094" viewBox="0 0 68.411 61.652">
  <g id="icone-qualite-tourisme" transform="translate(-221.636 -0.534)">
    <path id="Tracé_340" data-name="Tracé 340" d="M193.542,46.016c.039-.016.111-.044.111-.118a.105.105,0,0,0-.109-.107l-.081.023-.039.016a4.169,4.169,0,0,1-1.38.233,6.723,6.723,0,0,1-2.926-.806s-1.086-.531-1.369-.666a2.747,2.747,0,0,0,1.2-2.235,2.475,2.475,0,0,0-.818-1.92,3.17,3.17,0,0,0-2.119-.7,2.738,2.738,0,0,0-2.973,2.676,2.8,2.8,0,0,0,.678,1.839,2.94,2.94,0,0,0,2.274.906,3.808,3.808,0,0,0,1.117-.173c.133.076,1.106.617,1.106.617a5.766,5.766,0,0,0,3.045.932,5.414,5.414,0,0,0,2.284-.515m-7.694-5.872a2.148,2.148,0,0,1,2.016,2.4c0,1.907-1.009,2.192-1.609,2.192a2.216,2.216,0,0,1-2.137-2.476c0-1.341.631-2.111,1.73-2.111" transform="translate(38.72 8.405)" fill="#fff"/>
    <path id="Tracé_341" data-name="Tracé 341" d="M197.682,39.813c-.179,0-.428.006-.608.013-.1,0-.177.007-.206.007h-.021c-.4-.018-.655-.021-.8-.021-.061,0-.191,0-.191.1s.12.107.165.107a1.4,1.4,0,0,1,.246.018c.222.045.263.139.276.348s.013.4.013,1.443v.85a2.218,2.218,0,0,1-.4,1.659,1.425,1.425,0,0,1-.957.355,1.311,1.311,0,0,1-.866-.271c-.28-.218-.543-.568-.543-1.64V41.83c0-1.038,0-1.226.013-1.443.016-.233.073-.319.231-.348a1.09,1.09,0,0,1,.2-.018c.041,0,.159,0,.159-.107s-.132-.1-.2-.1c-.143,0-.346.006-.526.013-.142,0-.277.007-.355.007s-.224,0-.382-.007c-.208-.007-.443-.013-.66-.013-.07,0-.2,0-.2.1s.121.107.166.107a1.442,1.442,0,0,1,.269.018c.219.045.26.139.271.348s.018.4.018,1.443v.993a2.251,2.251,0,0,0,.652,1.837,2.424,2.424,0,0,0,1.615.48,2.259,2.259,0,0,0,1.513-.5,2.523,2.523,0,0,0,.692-2.081V41.83c0-1.038,0-1.226.016-1.443.013-.233.068-.319.23-.348a1.066,1.066,0,0,1,.2-.018c.052,0,.17,0,.17-.107s-.13-.1-.193-.1" transform="translate(40.629 8.422)" fill="#fff"/>
    <path id="Tracé_342" data-name="Tracé 342" d="M206.128,44.959c0-.1-.1-.1-.136-.1a1.525,1.525,0,0,1-.294-.028c-.1-.022-.31-.071-.6-.716-.256-.582-.737-1.735-1.123-2.661-.308-.733-.573-1.364-.647-1.527-.067-.143-.118-.242-.218-.242s-.157.107-.24.3l-1.793,4.274c-.151.357-.285.55-.572.588-.055,0-.154.012-.221.012-.105,0-.128.052-.128.1,0,.111.122.111.182.111.254,0,.515-.01.685-.017l.156,0c.11,0,.245,0,.373.011s.269.01.385.01c.047,0,.165,0,.165-.111s-.1-.1-.151-.1h-.107c-.214,0-.242-.086-.242-.167a1.189,1.189,0,0,1,.1-.4l.386-.973.012-.024.011,0h1.594l.034.024.571,1.442,0,.065-.038.032c-.047.007-.133.016-.133.1s.1.091.224.094l.032,0c.573.015,1.1.015,1.353.015s.373,0,.373-.111m-3.2-3.755.636,1.662h-1.288Z" transform="translate(42.341 8.396)" fill="#fff"/>
    <path id="Tracé_343" data-name="Tracé 343" d="M212.628,44.848a4.924,4.924,0,0,0,.108-.791c0-.064,0-.161-.1-.161s-.117.1-.122.141a.8.8,0,0,1-.172.384c-.164.165-.414.179-.808.179-.563,0-.728-.051-.836-.143-.137-.109-.137-.606-.137-1.43v-1.2c0-1.037,0-1.225.015-1.443s.073-.319.23-.348a1.971,1.971,0,0,1,.274-.018c.047,0,.17,0,.17-.107s-.128-.1-.2-.1c-.155,0-.388.007-.595.013-.16,0-.3.007-.374.007s-.213,0-.365-.007c-.2-.006-.425-.013-.618-.013-.068,0-.2,0-.2.1s.12.107.162.107a1.179,1.179,0,0,1,.227.018c.222.045.263.141.276.348s.013.406.013,1.443v1.2c0,.624,0,1.163-.036,1.445-.029.208-.063.319-.171.337a1.158,1.158,0,0,1-.25.027c-.1,0-.159.033-.159.1s.063.11.185.11c.166,0,.378-.006.566-.013.143,0,.267-.006.337-.006.247,0,.476.006.735.016.355.011.756.024,1.346.024.365,0,.436-.034.491-.217" transform="translate(44.191 8.422)" fill="#fff"/>
    <path id="Tracé_344" data-name="Tracé 344" d="M217.417,45.024c.07,0,.185,0,.328.006.219.007.494.015.784.015.164,0,.179-.078.179-.111s-.021-.1-.156-.1a2.644,2.644,0,0,1-.36-.027c-.185-.025-.228-.12-.248-.3-.027-.29-.027-.819-.027-1.487v-1.2c0-1.038,0-1.226.013-1.443.013-.234.069-.32.228-.349a1.471,1.471,0,0,1,.208-.018c.039,0,.159,0,.159-.113,0-.095-.143-.095-.2-.095-.151,0-.349.006-.522.013-.138,0-.271.006-.349.006-.1,0-.246,0-.4-.008-.188,0-.38-.011-.527-.011-.074,0-.214,0-.214.095,0,.113.12.113.159.113a1.128,1.128,0,0,1,.248.025c.133.029.2.128.208.342s.016.4.016,1.443v1.2c0,.668,0,1.195-.036,1.48-.023.207-.068.285-.172.3a1.242,1.242,0,0,1-.251.027c-.1,0-.156.032-.156.1s.061.111.185.111c.165,0,.378-.007.568-.015.139,0,.262-.006.334-.006" transform="translate(45.759 8.422)" fill="#fff"/>
    <path id="Tracé_345" data-name="Tracé 345" d="M222.518,40.84a.132.132,0,0,0,.122-.113.635.635,0,0,1,.115-.224c.091-.13.23-.167.658-.181l1.023-.028v2.748c0,.625,0,1.163-.036,1.445-.025.224-.073.32-.172.338a1.187,1.187,0,0,1-.248.027c-.107,0-.159.032-.159.1s.064.111.185.111c.164,0,.38-.007.566-.015.143,0,.267-.006.334-.006s.2,0,.339.006c.222.007.5.015.785.015.161,0,.179-.078.179-.111s-.021-.1-.159-.1a2.674,2.674,0,0,1-.36-.027c-.172-.023-.217-.127-.24-.331-.036-.29-.036-.827-.036-1.453V40.295l.855.021c.493.011.785.133.8.342l.006.076c0,.07.013.172.12.172s.1-.1.109-.144v0c0-.093,0-.267.011-.433.007-.149.012-.29.012-.356,0-.085,0-.187-.1-.187l-.079.012a2.694,2.694,0,0,1-.608.057h-2.831c-.227,0-.5-.015-.709-.035a.636.636,0,0,1-.219-.056l-.094-.025c-.088,0-.111.1-.125.161-.011.042-.151.674-.151.794,0,.041,0,.151.1.151" transform="translate(47.049 8.405)" fill="#fff"/>
    <path id="Tracé_346" data-name="Tracé 346" d="M230.817,40.029a1.54,1.54,0,0,1,.269.019c.219.044.26.141.274.347s.013.407.013,1.443v1.2c0,.625,0,1.163-.034,1.447-.032.208-.065.319-.172.337a1.282,1.282,0,0,1-.251.028c-.1,0-.156.032-.156.1s.062.111.188.111c.161,0,.376-.007.563-.013.143,0,.265-.006.336-.006.162,0,.33.006.543.012.34.012.771.028,1.438.028.274,0,.366,0,.425-.208a4.91,4.91,0,0,0,.095-.768c0-.065,0-.165-.1-.165s-.113.081-.12.137c-.052.271-.131.4-.3.471a1.839,1.839,0,0,1-.657.08c-.721,0-.8-.1-.814-.531,0-.138,0-.491,0-.771V42.5l0-.023c.2,0,.88.007,1.009.017.274.028.337.139.361.234a1.056,1.056,0,0,1,.025.177l0,.063V42.96a.1.1,0,0,0,.108.107c.107,0,.107-.121.107-.172s.016-.32.029-.453a3.507,3.507,0,0,1,.048-.435l.006-.064a.089.089,0,0,0-.09-.1c-.052,0-.086.039-.136.1l-.012.008a.5.5,0,0,1-.314.088c-.107.01-.511.012-1.14.012h0l0-.029V40.292l0-.024h0c.159,0,.9.013,1.01.024.344.04.4.119.443.223a.65.65,0,0,1,.041.228c0,.091.034.138.107.138s.1-.036.113-.109c.011-.057.018-.2.027-.311,0-.065.007-.12.01-.143a3.344,3.344,0,0,1,.047-.373l.011-.075c0-.092-.061-.1-.085-.1l-.087.016-.038.011c-.064.013-.2.029-.3.04-.12.007-1.288.007-1.783.007-.084,0-.212,0-.359-.007-.2-.006-.448-.013-.67-.013-.07,0-.2,0-.2.1s.118.105.162.105" transform="translate(48.792 8.413)" fill="#fff"/>
    <path id="Tracé_347" data-name="Tracé 347" d="M231.9,39.648a.267.267,0,0,0,.1-.039l.042-.021a4.347,4.347,0,0,1,1.209-.395.9.9,0,0,1,.2,0l.038,0,.082-.044a.119.119,0,0,0-.01-.124c-.093-.2-.156-.32-.208-.41-.034-.059-.061-.1-.137-.1a.365.365,0,0,0-.168.068c-.105.065-.859.6-1.156.864l-.076.118a.087.087,0,0,0,.086.086" transform="translate(49.037 8.147)" fill="#fff"/>
    <path id="Tracé_348" data-name="Tracé 348" d="M187.757,46.9l-.084.012a2.752,2.752,0,0,1-.606.056h-2.83c-.227,0-.5-.013-.71-.034a.7.7,0,0,1-.217-.055l-.1-.027c-.088,0-.11.1-.126.162-.011.041-.151.675-.151.792,0,.04,0,.154.105.154s.114-.086.122-.114a.671.671,0,0,1,.113-.225c.091-.13.236-.165.662-.179,0,0,.82-.023,1.02-.024V50.16c0,.625,0,1.163-.034,1.445-.025.227-.075.319-.172.339a1.207,1.207,0,0,1-.251.025c-.1,0-.156.034-.156.1s.061.111.183.111c.165,0,.378,0,.568-.012.142,0,.264-.008.334-.008s.2,0,.337.007c.222.008.5.013.788.013.158,0,.176-.078.176-.111s-.021-.1-.159-.1a3.06,3.06,0,0,1-.356-.025c-.177-.021-.221-.131-.242-.33-.036-.292-.036-.83-.036-1.455V47.417l.855.018c.494.008.786.136.8.342l.01.074c0,.073.011.177.12.177.092,0,.1-.1.107-.149v0c0-.091.006-.263.013-.43.006-.149.008-.29.008-.36s0-.185-.1-.185" transform="translate(38.698 9.911)" fill="#fff"/>
    <path id="Tracé_349" data-name="Tracé 349" d="M194.7,47.55a3.174,3.174,0,0,0-2.14-.7,2.733,2.733,0,0,0-2.995,2.711,2.7,2.7,0,0,0,2.922,2.713,3.057,3.057,0,0,0,2.192-.824,2.781,2.781,0,0,0,.812-2.01,2.434,2.434,0,0,0-.791-1.891m-1.909,4.3a1.979,1.979,0,0,1-1.581-.722,2.791,2.791,0,0,1-.573-1.772c0-1.819,1.077-2.09,1.716-2.09a2.165,2.165,0,0,1,2.054,2.429c0,1.945-1.13,2.155-1.615,2.155" transform="translate(40.101 9.911)" fill="#fff"/>
    <path id="Tracé_350" data-name="Tracé 350" d="M202.618,46.929c-.179,0-.428.01-.611.013-.1,0-.174.007-.206.007l-.018,0c-.4-.013-.655-.018-.8-.018-.061,0-.191,0-.191.1s.118.107.165.107a1.569,1.569,0,0,1,.247.017c.218.044.259.138.275.349s.012.4.012,1.441v.85a2.226,2.226,0,0,1-.4,1.659,1.413,1.413,0,0,1-.957.355,1.328,1.328,0,0,1-.869-.269c-.277-.22-.538-.568-.538-1.643v-.952c0-1.036,0-1.226.013-1.441.013-.237.068-.319.229-.349a1.09,1.09,0,0,1,.2-.017c.039,0,.156,0,.156-.107s-.131-.1-.2-.1c-.141,0-.344.007-.521.011-.144,0-.28.01-.357.01s-.227,0-.382-.007c-.208-.006-.446-.013-.663-.013-.07,0-.2,0-.2.1s.12.107.165.107a1.545,1.545,0,0,1,.269.017c.222.044.263.138.276.349s.013.4.013,1.441v1a2.258,2.258,0,0,0,.652,1.837,2.425,2.425,0,0,0,1.613.48,2.257,2.257,0,0,0,1.516-.5,2.515,2.515,0,0,0,.694-2.08v-.729c0-1.036,0-1.226.018-1.441.008-.237.065-.319.225-.349a1.077,1.077,0,0,1,.2-.017c.055,0,.172,0,.172-.107s-.132-.1-.193-.1" transform="translate(41.673 9.927)" fill="#fff"/>
    <path id="Tracé_351" data-name="Tracé 351" d="M210.063,51.953a1.116,1.116,0,0,1-.193-.018l-.008,0a1.41,1.41,0,0,1-.769-.449c-.363-.365-.778-.86-1.3-1.489l-.219-.267A1.91,1.91,0,0,0,208.5,48.2a1.207,1.207,0,0,0-.505-.968,2.4,2.4,0,0,0-1.339-.3c-.109,0-.287,0-.485.012s-.4.008-.52.008c-.059,0-.16,0-.287-.006-.2-.007-.462-.015-.694-.015-.068,0-.2,0-.2.105s.118.105.166.105a1.545,1.545,0,0,1,.267.018c.219.044.26.138.276.349s.011.4.011,1.441v1.2c0,.625,0,1.163-.034,1.447-.029.207-.063.319-.172.338a1.159,1.159,0,0,1-.251.025c-.1,0-.156.034-.156.1s.064.111.188.111c.17,0,.4,0,.582-.011.127,0,.235-.01.292-.01.034,0,.12,0,.225.007.22,0,.545.013.821.013.125,0,.188-.036.188-.111,0-.047-.034-.1-.128-.1a3.409,3.409,0,0,1-.346-.025c-.174-.019-.217-.131-.242-.337-.034-.285-.034-.825-.034-1.454v-.093l0-.011h.013l.62.011a.107.107,0,0,1,.095.034c.055.057.185.237.342.446l.365.491a3.355,3.355,0,0,0,.995,1.014,1.561,1.561,0,0,0,.785.133h.676c.05,0,.182,0,.182-.111,0-.047-.034-.1-.13-.1m-2.492-3.415a1.123,1.123,0,0,1-.4.989.718.718,0,0,1-.485.105,1.9,1.9,0,0,1-.529-.065c-.022-.008-.034-.013-.034-.081V47.416l.032-.055a1.581,1.581,0,0,1,.37-.027,1.072,1.072,0,0,1,1.052,1.2" transform="translate(43.253 9.927)" fill="#fff"/>
    <path id="Tracé_352" data-name="Tracé 352" d="M213.757,51.953a3.1,3.1,0,0,1-.36-.025c-.183-.024-.229-.12-.251-.293-.027-.294-.027-.819-.027-1.491v-1.2c0-1.036,0-1.226.016-1.442.011-.237.069-.319.228-.348a1.468,1.468,0,0,1,.206-.018c.04,0,.156,0,.156-.113s-.136-.1-.19-.1c-.149,0-.349.007-.522.012-.141,0-.27.008-.35.008-.1,0-.247,0-.4-.008-.185-.007-.38-.012-.525-.012-.076,0-.214,0-.214.1s.118.113.155.113a1.129,1.129,0,0,1,.25.023c.136.031.2.128.21.343s.013.406.013,1.442v1.2c0,.672,0,1.2-.035,1.482-.021.206-.067.284-.172.3a1.164,1.164,0,0,1-.25.025c-.105,0-.158.034-.158.1s.063.111.185.111c.165,0,.378,0,.567-.011.143,0,.265-.01.336-.01s.185,0,.326.007c.22.008.5.013.786.013.161,0,.182-.078.182-.111s-.023-.1-.159-.1" transform="translate(44.745 9.927)" fill="#fff"/>
    <path id="Tracé_353" data-name="Tracé 353" d="M218.57,49l-.2-.145c-.626-.449-.74-.671-.74-.945,0-.4.317-.658.808-.658a.88.88,0,0,1,.746.319.761.761,0,0,1,.177.42c0,.138.058.167.115.167.12,0,.12-.156.12-.248,0-.376.013-.582.022-.7l.007-.114c0-.1-.1-.115-.136-.125a3.744,3.744,0,0,0-.96-.115c-1,0-1.694.545-1.694,1.33,0,.592.321,1.086,1.075,1.649l.33.245c.566.418.683.721.683,1.053a.816.816,0,0,1-.916.735.948.948,0,0,1-.979-.66,1.338,1.338,0,0,1-.064-.332c0-.107-.04-.159-.113-.159-.115,0-.125.154-.131.214l0,.028c-.007.139-.031.517-.031.869,0,.165.029.217.162.271a2.642,2.642,0,0,0,1.059.181,2.142,2.142,0,0,0,1.158-.287,1.4,1.4,0,0,0,.694-1.221c0-.657-.315-1.119-1.19-1.769" transform="translate(45.837 9.911)" fill="#fff"/>
    <path id="Tracé_354" data-name="Tracé 354" d="M229.273,51.979a1.391,1.391,0,0,1-.433-.065c-.178-.05-.253-.206-.321-.654l-.652-4.2c-.008-.064-.035-.25-.17-.25-.1,0-.154.1-.194.188,0,0-1.638,3.272-1.909,3.812l-1.911-3.765c-.093-.179-.148-.234-.231-.234-.058,0-.131.036-.162.211l-.711,4.44c-.035.241-.092.47-.257.5a1,1,0,0,1-.206.018c-.1,0-.159.031-.159.091,0,.079.057.118.172.118.131,0,.3,0,.441-.011.111,0,.208-.01.267-.01s.132,0,.229.007c.151.008.339.013.522.013.07,0,.216,0,.216-.118,0-.028-.016-.091-.151-.091a1.39,1.39,0,0,1-.29-.032c-.161-.036-.184-.118-.184-.177a2.551,2.551,0,0,1,.023-.314s.294-2.142.362-2.616l.293.6c.19.382.37.74.407.825.087.19.641,1.218.824,1.55l.023.041c.115.208.176.323.267.323s.136-.086.3-.407c0,0,1.281-2.533,1.52-3.013l.417,2.906c.034.208,0,.245,0,.245-.041.016-.109.045-.109.115,0,.09.107.107.245.118.285.021,1.268.041,1.456.041s.228-.073.228-.118c0-.091-.11-.091-.155-.091" transform="translate(46.953 9.901)" fill="#fff"/>
    <path id="Tracé_355" data-name="Tracé 355" d="M234.251,51.052c-.1,0-.113.079-.12.138-.052.269-.131.4-.3.47a1.866,1.866,0,0,1-.657.079c-.721,0-.8-.1-.814-.531,0-.138,0-.489,0-.772v-.819l0-.024c.2,0,.88.006,1.009.019.274.028.337.141.361.236a.953.953,0,0,1,.025.172l0,.065v0a.1.1,0,0,0,.108.1c.107,0,.107-.122.107-.174s.016-.316.03-.449a3.244,3.244,0,0,1,.047-.435l.006-.068a.086.086,0,0,0-.09-.1c-.052,0-.086.039-.136.091l-.012.011a.49.49,0,0,1-.314.088c-.107.008-.511.012-1.14.012h0l0-.03V47.412l0-.024,0,0c.159,0,.9.016,1.01.027.344.041.4.115.443.219a.66.66,0,0,1,.041.229c0,.092.034.138.107.138s.1-.036.113-.109c.011-.055.018-.2.028-.31,0-.065.006-.12.008-.142a3.674,3.674,0,0,1,.047-.376l.011-.073c0-.1-.061-.107-.085-.107l-.086.021-.039.011a2.951,2.951,0,0,1-.3.039c-.12,0-1.288.007-1.783.007-.084,0-.212,0-.359-.007-.2-.006-.448-.013-.67-.013-.07,0-.2,0-.2.1s.118.105.162.105a1.567,1.567,0,0,1,.269.018c.219.044.26.138.274.349s.013.4.013,1.441v1.2c0,.624,0,1.162-.034,1.445-.032.208-.065.319-.172.339a1.188,1.188,0,0,1-.251.024c-.1,0-.156.034-.156.1s.062.11.188.11c.161,0,.376,0,.563-.011.143,0,.265-.01.336-.01.162,0,.33.007.543.016.342.01.771.028,1.438.028.274,0,.366,0,.425-.208a4.926,4.926,0,0,0,.095-.769c0-.065,0-.165-.1-.165" transform="translate(48.792 9.917)" fill="#fff"/>
    <path id="Tracé_356" data-name="Tracé 356" d="M227,39.286a107.846,107.846,0,0,0-12.4-1.456A19.72,19.72,0,0,0,226.312,6.394c3.395,5.834,3.083,14.125-1.4,21.153a25.119,25.119,0,0,1-1.76,2.411c-1.373,1.3-3.875.248-5.114.022-6.946-1.266-8.02,2.892-8.02,2.892-2.212-1.1-7.267-1.6-8.759-1.726,1.655-5.865,1.918-8.5.259-12.338.86,4.268.182,5.781-2.567,12.542l.315.036c1.522.217,7.465,1.416,10.637,3.7.631-4.972,4.49-4.822,7.107-3.609a13.033,13.033,0,0,0,3.352,1.321,20.941,20.941,0,0,1-7.7,4.25,26.538,26.538,0,0,1-5.022.744l-.055,0-.063,0c-8.9.464-11.96,2.817-11.96,2.817s5.907-2.63,25.534.67c25.136,4.225,27.593-.643,27.593-.643S246.467,42.634,227,39.286" transform="translate(41.367 1.353)" fill="#fff"/>
    <path id="Tracé_357" data-name="Tracé 357" d="M207.676,39.1c.1-.006.211-.011.319-.018A19.882,19.882,0,0,1,194.714,19.8a21.7,21.7,0,0,1,1.013-6.491l.316.059c1.867.183,8.182,1.482,8.854-4.821,0,0,4.525,1.392,7.593-4.985,3.507,4.22,9.638,7.991,12.8,9.864-2.487,1.066-4.412,6.668-3.893,8.854.43-3.368,4.377-7.37,5.909-8.132-5.9-3.7-10.649-8.075-12.708-11.4l-2.194-.01a6.152,6.152,0,0,1-7.737,3.778c.337,6.874-6.748,5.121-8.178,4.748A20.759,20.759,0,0,1,207.133.441a19.762,19.762,0,0,0,.543,38.655" transform="translate(40.563 0.093)" fill="#fff"/>
  </g>
</svg>