<?xml version="1.0" standalone="no"?>
<!DOCTYPE svg PUBLIC "-//W3C//DTD SVG 1.1//EN" "http://www.w3.org/Graphics/SVG/1.1/DTD/svg11.dtd">
<svg xmlns="http://www.w3.org/2000/svg" width="129.95199584960938" height="62.465999603271484" viewBox="0 0 129.952 62.466">
  <g id="icone-ot-de-france" transform="translate(-305.937 -0.534)">
    <path id="Tracé_358" data-name="Tracé 358" d="M313.8,18.712a3.984,3.984,0,0,0,4.19-4.191V9.839a4.168,4.168,0,0,0-1.161-3.029,4.532,4.532,0,0,0-6.058,0,4.163,4.163,0,0,0-1.161,3.029v4.681a3.984,3.984,0,0,0,4.19,4.191m-2.633-4.137V9.8a2.7,2.7,0,0,1,.714-1.97,2.934,2.934,0,0,1,3.838,0,2.705,2.705,0,0,1,.714,1.97v4.772a2.691,2.691,0,0,1-.714,1.955,2.937,2.937,0,0,1-3.838,0,2.686,2.686,0,0,1-.714-1.955" transform="translate(65.495 1.195)" fill="#fff"/>
    <path id="Tracé_359" data-name="Tracé 359" d="M320.416,7.118a2.58,2.58,0,0,1,.5.056,2.145,2.145,0,0,0,.417.05.719.719,0,0,0,.744-.725.766.766,0,0,0-.622-.74,5.062,5.062,0,0,0-1.041-.109,2.478,2.478,0,0,0-2.475,2.475v9.826a.761.761,0,1,0,1.522,0V10.829h1.872a.718.718,0,0,0,.744-.725.735.735,0,0,0-.744-.744h-1.872V8.072a.954.954,0,0,1,.953-.953" transform="translate(67.257 1.195)" fill="#fff"/>
    <path id="Tracé_360" data-name="Tracé 360" d="M327.313,7.578a.964.964,0,1,0-.955-.973.964.964,0,0,0,.955.973" transform="translate(69.037 1.195)" fill="#fff"/>
    <path id="Tracé_361" data-name="Tracé 361" d="M323.707,17.951V10.829h1.873a.718.718,0,0,0,.743-.725.735.735,0,0,0-.743-.744h-1.873V8.072a.944.944,0,0,1,.953-.953,2.489,2.489,0,0,1,.5.056,2.158,2.158,0,0,0,.418.05.719.719,0,0,0,.743-.725.767.767,0,0,0-.622-.74,5.062,5.062,0,0,0-1.041-.109,2.477,2.477,0,0,0-2.475,2.475v9.826a.761.761,0,0,0,1.522,0" transform="translate(68.155 1.195)" fill="#fff"/>
    <path id="Tracé_362" data-name="Tracé 362" d="M327.279,8.567a.771.771,0,0,0-.761.761v8.006a.761.761,0,1,0,1.522,0V9.328a.771.771,0,0,0-.761-.761" transform="translate(69.071 1.812)" fill="#fff"/>
    <path id="Tracé_363" data-name="Tracé 363" d="M332.668,18.095a5.41,5.41,0,0,0,2.387-.546.734.734,0,0,0-.337-1.4.829.829,0,0,0-.337.087,3.922,3.922,0,0,1-1.713.425,1.7,1.7,0,0,1-1.872-1.873V11.873A1.7,1.7,0,0,1,332.668,10a3.86,3.86,0,0,1,1.725.448.876.876,0,0,0,.325.064.736.736,0,0,0,.761-.726.763.763,0,0,0-.425-.674,5.4,5.4,0,0,0-2.386-.546,3.213,3.213,0,0,0-3.393,3.395V14.7a3.213,3.213,0,0,0,3.393,3.394" transform="translate(69.654 1.812)" fill="#fff"/>
    <path id="Tracé_364" data-name="Tracé 364" d="M338.548,18.094a5.855,5.855,0,0,0,2.6-.582.743.743,0,0,0,.424-.674.735.735,0,0,0-.76-.726.777.777,0,0,0-.313.067,4.764,4.764,0,0,1-1.949.481,1.779,1.779,0,0,1-1.873-1.96v-.83h4.259a.991.991,0,0,0,.99-.991v-.918a3.385,3.385,0,1,0-6.77,0V14.7a3.213,3.213,0,0,0,3.395,3.394m-1.873-5.657v-.565a1.863,1.863,0,1,1,3.727,0v.565Z" transform="translate(70.898 1.812)" fill="#fff"/>
    <path id="Tracé_365" data-name="Tracé 365" d="M344.616,16.661a4.432,4.432,0,0,1-1.832-.43l-.036-.016a.682.682,0,0,0-.27-.067.727.727,0,0,0-.761.726.737.737,0,0,0,.445.692,5.423,5.423,0,0,0,2.4.528,2.824,2.824,0,0,0,2.988-2.776,2.711,2.711,0,0,0-1.867-2.5l-1.661-.672a1.131,1.131,0,0,1-.784-1.071c0-.795.733-1.077,1.359-1.077a4.235,4.235,0,0,1,1.779.377.762.762,0,0,0,.29.065.72.72,0,0,0,.761-.709.782.782,0,0,0-.466-.711,5.389,5.389,0,0,0-2.221-.456c-1.752,0-3.023,1.078-3.023,2.564a2.44,2.44,0,0,0,1.636,2.392l1.66.689c.741.317,1.016.67,1.016,1.3a1.267,1.267,0,0,1-1.413,1.149" transform="translate(72.286 1.812)" fill="#fff"/>
    <path id="Tracé_366" data-name="Tracé 366" d="M318.122,20.469a.771.771,0,0,0-.761-.761h-7.086a.752.752,0,1,0,0,1.5h2.756v10.6a.778.778,0,1,0,1.556,0v-10.6h2.774a.764.764,0,0,0,.761-.744" transform="translate(65.474 4.169)" fill="#fff"/>
    <path id="Tracé_367" data-name="Tracé 367" d="M319.032,22.48a3.372,3.372,0,0,0-3.553,3.57v2.386a3.553,3.553,0,1,0,7.107,0V26.05a3.372,3.372,0,0,0-3.553-3.57m2.032,3.482v2.562a2.031,2.031,0,1,1-4.062,0V25.962a2.031,2.031,0,1,1,4.062,0" transform="translate(66.736 4.755)" fill="#fff"/>
    <path id="Tracé_368" data-name="Tracé 368" d="M326.079,32.008a8.58,8.58,0,0,0,2.72-.451.983.983,0,0,0,.657-.928V23.241a.761.761,0,1,0-1.522,0v7.074a6.857,6.857,0,0,1-1.855.259,1.705,1.705,0,0,1-1.873-1.873v-5.46a.76.76,0,1,0-1.52,0v5.373a3.18,3.18,0,0,0,3.393,3.394" transform="translate(68.26 4.755)" fill="#fff"/>
    <path id="Tracé_369" data-name="Tracé 369" d="M333.759,22.625a6.306,6.306,0,0,0-1.3-.145,2.456,2.456,0,0,0-2.475,2.6v6.168a.761.761,0,1,0,1.522,0v-6.22a.966.966,0,0,1,.953-1.077,4.288,4.288,0,0,1,.823.086c.035.006.07.015.1.022a1.065,1.065,0,0,0,.222.033.736.736,0,0,0,.761-.724.76.76,0,0,0-.6-.74" transform="translate(69.803 4.755)" fill="#fff"/>
    <path id="Tracé_370" data-name="Tracé 370" d="M335.422,22.48a.772.772,0,0,0-.761.761v8.006a.761.761,0,1,0,1.522,0V23.241a.772.772,0,0,0-.761-.761" transform="translate(70.794 4.755)" fill="#fff"/>
    <path id="Tracé_371" data-name="Tracé 371" d="M335.456,21.491a.964.964,0,1,0-.955-.973.964.964,0,0,0,.955.973" transform="translate(70.76 4.138)" fill="#fff"/>
    <path id="Tracé_372" data-name="Tracé 372" d="M343.253,29.232a2.71,2.71,0,0,0-1.867-2.5l-1.661-.671a1.135,1.135,0,0,1-.785-1.072c0-.795.733-1.077,1.361-1.077a4.217,4.217,0,0,1,1.779.378.783.783,0,0,0,.29.063.719.719,0,0,0,.761-.708.782.782,0,0,0-.466-.711,5.389,5.389,0,0,0-2.221-.456c-1.752,0-3.023,1.078-3.023,2.564a2.439,2.439,0,0,0,1.637,2.392l1.659.689c.741.317,1.016.67,1.016,1.3a1.268,1.268,0,0,1-1.413,1.149,4.432,4.432,0,0,1-1.832-.43l-.036-.015a.662.662,0,0,0-.27-.068.727.727,0,0,0-.761.726.737.737,0,0,0,.445.692,5.4,5.4,0,0,0,2.4.528,2.824,2.824,0,0,0,2.988-2.776" transform="translate(71.377 4.755)" fill="#fff"/>
    <path id="Tracé_373" data-name="Tracé 373" d="M349.953,31.247v-6.81a2.972,2.972,0,0,1,1.678-.523,1.671,1.671,0,0,1,1.66,1.678v5.655a.761.761,0,0,0,1.522,0V25.68a3.194,3.194,0,0,0-3.182-3.2,4.541,4.541,0,0,0-2.493.768,3.118,3.118,0,0,0-2.119-.768,7.782,7.782,0,0,0-2.8.523.976.976,0,0,0-.632.909v7.335a.761.761,0,0,0,1.522,0V24.2a6.082,6.082,0,0,1,1.908-.291c.711,0,1.431.376,1.431,1.1v6.238a.752.752,0,1,0,1.5,0" transform="translate(72.682 4.755)" fill="#fff"/>
    <path id="Tracé_374" data-name="Tracé 374" d="M357.587,22.479a3.214,3.214,0,0,0-3.393,3.395v2.739a3.214,3.214,0,0,0,3.393,3.395,5.861,5.861,0,0,0,2.6-.583.744.744,0,0,0,.424-.674.736.736,0,0,0-.761-.726.775.775,0,0,0-.311.068,4.78,4.78,0,0,1-1.951.48,1.779,1.779,0,0,1-1.872-1.96v-.83h4.259a.992.992,0,0,0,.99-.991v-.918a3.205,3.205,0,0,0-3.377-3.395m1.855,3.306v.565h-3.727v-.565a1.863,1.863,0,1,1,3.727,0" transform="translate(74.926 4.755)" fill="#fff"/>
    <path id="Tracé_375" data-name="Tracé 375" d="M329.082,33.495h-5.073a.992.992,0,0,0-.99.991V45.62a.779.779,0,0,0,1.557,0V40.372h4.276a.752.752,0,1,0,0-1.5h-4.276V35h4.506a.752.752,0,1,0,0-1.5" transform="translate(68.331 7.085)" fill="#fff"/>
    <path id="Tracé_376" data-name="Tracé 376" d="M333.48,36.411a6.3,6.3,0,0,0-1.3-.144,2.456,2.456,0,0,0-2.475,2.6v6.168a.761.761,0,0,0,1.522,0V38.812a.967.967,0,0,1,.953-1.078,4.3,4.3,0,0,1,.823.087c.035.006.07.015.105.022a1.044,1.044,0,0,0,.22.034.737.737,0,0,0,.761-.726.76.76,0,0,0-.6-.74" transform="translate(69.744 7.672)" fill="#fff"/>
    <path id="Tracé_377" data-name="Tracé 377" d="M337.174,36.267a5.134,5.134,0,0,0-2.7.732.778.778,0,0,0-.374.666.727.727,0,0,0,.761.724.673.673,0,0,0,.362-.11,3.807,3.807,0,0,1,1.953-.579c1.088,0,1.713.522,1.713,1.431v.953h-1.855a3.7,3.7,0,0,0-2.566.75,3.021,3.021,0,0,0,0,4.159,3.712,3.712,0,0,0,2.564.8,8.533,8.533,0,0,0,2.7-.449.981.981,0,0,0,.677-.929v-5.3c0-1.729-1.27-2.847-3.235-2.847m1.713,5.251V44.1a6.857,6.857,0,0,1-1.855.259c-1.66,0-1.873-.774-1.873-1.448,0-.691.223-1.4,1.873-1.4Z" transform="translate(70.577 7.672)" fill="#fff"/>
    <path id="Tracé_378" data-name="Tracé 378" d="M344.4,36.267a7.969,7.969,0,0,0-2.724.452.991.991,0,0,0-.67.928v7.387a.76.76,0,1,0,1.521,0V37.96A6.827,6.827,0,0,1,344.4,37.7a1.713,1.713,0,0,1,1.855,1.873v5.46a.761.761,0,1,0,1.522,0V39.662a3.205,3.205,0,0,0-3.377-3.395" transform="translate(72.136 7.672)" fill="#fff"/>
    <path id="Tracé_379" data-name="Tracé 379" d="M351.474,37.7a3.868,3.868,0,0,1,1.726.448.87.87,0,0,0,.323.064.736.736,0,0,0,.761-.726.762.762,0,0,0-.425-.674,5.4,5.4,0,0,0-2.385-.546,3.213,3.213,0,0,0-3.394,3.395V42.4a3.213,3.213,0,0,0,3.394,3.395,5.391,5.391,0,0,0,2.387-.548.734.734,0,0,0-.337-1.4.823.823,0,0,0-.337.087,3.922,3.922,0,0,1-1.713.425,1.705,1.705,0,0,1-1.873-1.873V39.572a1.7,1.7,0,0,1,1.873-1.872" transform="translate(73.632 7.672)" fill="#fff"/>
    <path id="Tracé_380" data-name="Tracé 380" d="M357.57,36.266a3.213,3.213,0,0,0-3.393,3.395V42.4a3.214,3.214,0,0,0,3.393,3.395,5.861,5.861,0,0,0,2.6-.583.745.745,0,0,0,.424-.674.736.736,0,0,0-.761-.726.8.8,0,0,0-.311.067,4.76,4.76,0,0,1-1.951.481A1.78,1.78,0,0,1,355.7,42.4v-.83h4.259a.992.992,0,0,0,.991-.99v-.92a3.205,3.205,0,0,0-3.377-3.395m1.855,3.306v.565H355.7v-.565a1.864,1.864,0,1,1,3.728,0" transform="translate(74.922 7.672)" fill="#fff"/>
    <path id="Tracé_381" data-name="Tracé 381" d="M353.077,18.069a6.219,6.219,0,0,0,1.988-.33.757.757,0,0,0,.522-.717V9.083a.6.6,0,1,0-1.193,0v2.261a3.176,3.176,0,0,0-1.317-.288,2.347,2.347,0,0,0-2.5,2.512v1.991a2.371,2.371,0,0,0,2.5,2.512m-1.3-2.447V13.5a1.194,1.194,0,0,1,1.3-1.317,1.962,1.962,0,0,1,1.317.425v4.151a4.885,4.885,0,0,1-1.317.178,1.193,1.193,0,0,1-1.3-1.317" transform="translate(74.161 1.795)" fill="#fff"/>
    <path id="Tracé_382" data-name="Tracé 382" d="M358.125,17.619a4.318,4.318,0,0,0,1.909-.428.584.584,0,0,0,.332-.528.578.578,0,0,0-.6-.572.613.613,0,0,0-.245.053,3.441,3.441,0,0,1-1.4.345,1.253,1.253,0,0,1-1.317-1.381v-.56h3.052a.765.765,0,0,0,.763-.764v-.668a2.5,2.5,0,1,0-5.009,0v1.992a2.377,2.377,0,0,0,2.51,2.51m-1.317-4.2v-.367a1.311,1.311,0,1,1,2.622,0v.367Z" transform="translate(75.226 2.244)" fill="#fff"/>
    <path id="Tracé_383" data-name="Tracé 383" d="M313.875,36.281a.591.591,0,0,0-.6.6v2.26a3.2,3.2,0,0,0-1.317-.287,2.346,2.346,0,0,0-2.5,2.51v1.992a2.371,2.371,0,0,0,2.5,2.51,6.212,6.212,0,0,0,1.988-.328.757.757,0,0,0,.522-.717V36.878a.591.591,0,0,0-.6-.6m-.6,4.124v4.151a4.892,4.892,0,0,1-1.317.178,1.193,1.193,0,0,1-1.3-1.317V41.3a1.193,1.193,0,0,1,1.3-1.317,1.962,1.962,0,0,1,1.317.425" transform="translate(65.463 7.675)" fill="#fff"/>
    <path id="Tracé_384" data-name="Tracé 384" d="M317.009,38.4a2.376,2.376,0,0,0-2.51,2.51V42.9a2.377,2.377,0,0,0,2.51,2.51,4.314,4.314,0,0,0,1.909-.428.585.585,0,0,0,.332-.528.579.579,0,0,0-.6-.572.617.617,0,0,0-.245.053,3.441,3.441,0,0,1-1.4.345,1.253,1.253,0,0,1-1.317-1.381v-.56h3.052a.765.765,0,0,0,.763-.764v-.668a2.37,2.37,0,0,0-2.5-2.51m-1.317,2.813v-.367a1.311,1.311,0,1,1,2.622,0v.367Z" transform="translate(66.529 8.124)" fill="#fff"/>
    <path id="Tracé_385" data-name="Tracé 385" d="M272.656,48.448c-3.922-11.748-1.324-24.826,7.054-35.347-.6,6.424,5.824,12.16,11.189,13.687-6.971,6.258-11.529,19.708-10.01,31.381,0,0,.41,1.895-.813,2.054-2.144.277-6.31-8.45-7.419-11.775" transform="translate(57.298 2.771)" fill="#fff"/>
    <path id="Tracé_386" data-name="Tracé 386" d="M305.969,22.167c-3.4,1.77-11.037,3.217-15.519-1.367-4.839-4.947-2.505-11.493.168-13.984L284.6.8a1.232,1.232,0,0,0-1.742.012L252.887,30.777a1.232,1.232,0,0,0-.013,1.742l20.593,20.593c-8.111-22.99,10.189-37.47,10.189-37.47,3.192,9.33,11.129,12.138,18.239,10.739C293.172,34.29,285.446,45.99,286.3,60.8L314.577,32.53a1.232,1.232,0,0,0,.012-1.742Z" transform="translate(53.418 0.093)" fill="#fff"/>
    <path id="Tracé_387" data-name="Tracé 387" d="M298.262,12.808a7.217,7.217,0,1,1-7.217-7.217,7.217,7.217,0,0,1,7.217,7.217" transform="translate(60.041 1.183)" fill="#fff"/>
  </g>
</svg>