<?xml version="1.0" standalone="no"?>
<!DOCTYPE svg PUBLIC "-//W3C//DTD SVG 1.1//EN" "http://www.w3.org/Graphics/SVG/1.1/DTD/svg11.dtd">
<svg xmlns="http://www.w3.org/2000/svg" id="icone-loire-a-velo" width="103.27400207519531" height="62.5629997253418" viewBox="0 0 103.274 62.563">
  <path id="Tracé_313" data-name="Tracé 313" d="M76.642,40.177a.814.814,0,0,0-.349.07,6.06,6.06,0,0,0-.052.622c.271-.027.771-.1.771-.463,0-.184-.221-.229-.37-.229" transform="translate(16.128 8.499)" fill="#fff"/>
  <path id="Tracé_314" data-name="Tracé 314" d="M52.516,15.02a20.306,20.306,0,0,1,2.315.124l.519-1.884a12.126,12.126,0,0,0-1.762-.086,19.666,19.666,0,0,0-3.2.188,29.762,29.762,0,0,1-.138-3.091,39.523,39.523,0,0,1,.533-6.684c-.655.151-1.33.275-1.966.48a35.9,35.9,0,0,0-.691,7.467c0,1.312.05,2.64.17,3.952a18.3,18.3,0,0,1,4.216-.465" transform="translate(10.181 0.759)" fill="#fff"/>
  <path id="Tracé_315" data-name="Tracé 315" d="M57.583,14.571A7.217,7.217,0,0,0,61.7,13.156c.05.535.12,1.07.223,1.605l1.989-.829A31.554,31.554,0,0,1,63.5,8.385c0-.536,0-1.072.029-1.608l-1.913.5A5.7,5.7,0,0,0,59.76,6.97a5.89,5.89,0,0,0-2.989.791,4.591,4.591,0,0,0-2.383,3.821,2.888,2.888,0,0,0,3.195,2.989M60.056,8.11a3.42,3.42,0,0,1,1.482.343c-.013.466-.032.935-.032,1.4,0,.642.018,1.264.068,1.9a3.583,3.583,0,0,1-2.711,1.3,1.993,1.993,0,0,1-2.211-1.934,3.28,3.28,0,0,1,3.4-3.007" transform="translate(11.505 1.434)" fill="#fff"/>
  <path id="Tracé_316" data-name="Tracé 316" d="M52.516,26.608a20.3,20.3,0,0,1,2.315.121l.519-1.882a11.959,11.959,0,0,0-1.762-.087,20.085,20.085,0,0,0-3.2.19,29.832,29.832,0,0,1-.138-3.094,39.563,39.563,0,0,1,.533-6.684c-.655.154-1.33.275-1.966.482a35.875,35.875,0,0,0-.691,7.462c0,1.316.05,2.648.17,3.962a18.237,18.237,0,0,1,4.216-.47" transform="translate(10.181 3.209)" fill="#fff"/>
  <path id="Tracé_317" data-name="Tracé 317" d="M59.836,18.521c-2.469,0-5.476,1.729-5.476,4.478,0,2.276,2.037,3.144,4.026,3.144,2.4,0,5.614-1.52,5.614-4.288,0-2.381-2.055-3.334-4.164-3.334m-1,6.207a2.141,2.141,0,0,1-2.212-2.233,2.848,2.848,0,0,1,2.764-2.658,2.172,2.172,0,0,1,2.332,2.245,2.848,2.848,0,0,1-2.883,2.646" transform="translate(11.499 3.918)" fill="#fff"/>
  <path id="Tracé_318" data-name="Tracé 318" d="M64.822,18.369a1.192,1.192,0,1,0-1.192-1.192,1.2,1.2,0,0,0,1.192,1.192" transform="translate(13.46 3.381)" fill="#fff"/>
  <path id="Tracé_319" data-name="Tracé 319" d="M65.729,25.513a27.576,27.576,0,0,1-.185-3.557,35.644,35.644,0,0,1,.171-3.574l-1.9.482a21.513,21.513,0,0,0-.331,4.354,21.067,21.067,0,0,0,.208,3.127Z" transform="translate(13.429 3.889)" fill="#fff"/>
  <path id="Tracé_320" data-name="Tracé 320" d="M69.128,25.482a27.726,27.726,0,0,1-.24-4.147,2.47,2.47,0,0,1,1.758-1.107,1.991,1.991,0,0,1,1.4.745l.723-2a1.929,1.929,0,0,0-1.33-.572,4.222,4.222,0,0,0-2.505,1.278c.015-.434.053-.865.085-1.3l-1.9.483a22.394,22.394,0,0,0-.258,3.991,21.412,21.412,0,0,0,.242,3.489Z" transform="translate(14.144 3.889)" fill="#fff"/>
  <path id="Tracé_321" data-name="Tracé 321" d="M80.683,20.32c-.689-1.33-2.4-1.8-3.782-1.8-2.35,0-5.219,1.781-5.219,4.357,0,2.452,2.125,3.264,4.249,3.264a6.21,6.21,0,0,0,4.286-1.415l-.38-1.3A4.566,4.566,0,0,1,76.484,24.8a2.679,2.679,0,0,1-1.828-.59,13.489,13.489,0,0,0,6.027-3.885m-6.67,3.007a2.039,2.039,0,0,1-.141-.709c0-1.747,1.886-2.9,3.478-2.9a2.846,2.846,0,0,1,1.346.326,20.624,20.624,0,0,1-4.684,3.284" transform="translate(15.163 3.918)" fill="#fff"/>
  <path id="Tracé_322" data-name="Tracé 322" d="M51.023,37.746a7.18,7.18,0,0,0,4.111-1.417c.055.536.124,1.072.225,1.605l1.987-.829a31.647,31.647,0,0,1-.413-5.544c0-.537,0-1.073.033-1.609l-1.917.5a5.513,5.513,0,0,0-1.848-.314,5.9,5.9,0,0,0-2.99.795,4.593,4.593,0,0,0-2.382,3.818,2.887,2.887,0,0,0,3.194,2.991m2.472-6.464a3.332,3.332,0,0,1,1.484.349c-.015.463-.032.932-.032,1.4,0,.638.017,1.26.067,1.9a3.581,3.581,0,0,1-2.71,1.3,1.994,1.994,0,0,1-2.212-1.937,3.282,3.282,0,0,1,3.4-3.006" transform="translate(10.118 6.336)" fill="#fff"/>
  <path id="Tracé_323" data-name="Tracé 323" d="M51.659,26.287l-1.362.987a14.939,14.939,0,0,0,3.158,2.848l1.178-.622a13.214,13.214,0,0,1-2.974-3.214" transform="translate(10.64 5.561)" fill="#fff"/>
  <path id="Tracé_324" data-name="Tracé 324" d="M55.249,38.572a40.523,40.523,0,0,0-3.317,7.979,28.685,28.685,0,0,1-2.163-8.2l-1.983.9c.428,3.109,2.262,8.812,4.4,11.094.882-2.389,1.867-4.753,2.886-7.089a37.184,37.184,0,0,1,2.315-4.677Z" transform="translate(10.109 8.112)" fill="#fff"/>
  <path id="Tracé_325" data-name="Tracé 325" d="M60.992,38.944l-1.362-.985a15.1,15.1,0,0,1-3.321,3.214l1.175.622a15.456,15.456,0,0,0,3.507-2.851" transform="translate(11.911 8.03)" fill="#fff"/>
  <path id="Tracé_326" data-name="Tracé 326" d="M63.543,43.493c-.689-1.33-2.4-1.8-3.784-1.8-2.35,0-5.218,1.782-5.218,4.355,0,2.452,2.127,3.264,4.251,3.264A6.2,6.2,0,0,0,63.077,47.9L62.7,46.6a4.556,4.556,0,0,1-3.352,1.365,2.692,2.692,0,0,1-1.832-.585,13.485,13.485,0,0,0,6.031-3.889M56.873,46.5a2.056,2.056,0,0,1-.138-.712c0-1.743,1.884-2.9,3.475-2.9a2.778,2.778,0,0,1,1.346.331A20.687,20.687,0,0,1,56.873,46.5" transform="translate(11.537 8.82)" fill="#fff"/>
  <path id="Tracé_327" data-name="Tracé 327" d="M64.953,44.638a42.922,42.922,0,0,1,.463-6.306l-1.915.483a32.1,32.1,0,0,0-.674,6.67c0,2.107.535,4.146,2.851,4.714l.9-1.26c-1.468-.741-1.621-2.851-1.621-4.3" transform="translate(13.29 8.109)" fill="#fff"/>
  <path id="Tracé_328" data-name="Tracé 328" d="M72.153,41.7c-2.47,0-5.476,1.729-5.476,4.474,0,2.28,2.039,3.144,4.026,3.144,2.4,0,5.614-1.52,5.614-4.282,0-2.388-2.057-3.337-4.164-3.337m-1,6.2a2.136,2.136,0,0,1-2.21-2.23A2.849,2.849,0,0,1,71.7,43.008a2.173,2.173,0,0,1,2.332,2.245A2.846,2.846,0,0,1,71.151,47.9" transform="translate(14.105 8.82)" fill="#fff"/>
  <path id="Tracé_329" data-name="Tracé 329" d="M76.969,39.253a1.96,1.96,0,0,0-1.911,1.972,1.79,1.79,0,0,0,1.776,1.822,1.965,1.965,0,0,0,1.913-1.975,1.793,1.793,0,0,0-1.779-1.82m.522,2.848a3.862,3.862,0,0,1-.561-.858,2.227,2.227,0,0,1-.439.038v.138a4.764,4.764,0,0,0,.027.559l-.32.13a5.838,5.838,0,0,1-.027-.6,6.08,6.08,0,0,1,.111-1.225A2.731,2.731,0,0,1,77,40.15c.3,0,.613.132.613.483a.6.6,0,0,1-.42.534,2.9,2.9,0,0,0,.473.651Z" transform="translate(15.878 8.304)" fill="#fff"/>
  <rect id="Rectangle_1482" data-name="Rectangle 1482" width="1.605" height="62.305" transform="translate(101.669 0.258)" fill="#fff"/>
  <path id="Tracé_330" data-name="Tracé 330" d="M16.865,7.819H10.618v7.575l.8-.006a34.143,34.143,0,0,1,5.445-7.568" transform="translate(2.246 1.654)" fill="#fff"/>
  <path id="Tracé_331" data-name="Tracé 331" d="M36.952,31.418a3.5,3.5,0,1,0-3.5-3.5,3.508,3.508,0,0,0,3.5,3.5m0-5.708a2.205,2.205,0,1,1-2.2,2.206,2.208,2.208,0,0,1,2.2-2.206" transform="translate(7.076 5.164)" fill="#fff"/>
  <path id="Tracé_332" data-name="Tracé 332" d="M35.033,9.994l.114-.027-.11-.463-.113.029A22.181,22.181,0,0,0,18.966,24.678l-.147.506-.033.111.458.126.172-.611A21.722,21.722,0,0,1,35.033,9.994" transform="translate(3.974 2.011)" fill="#fff"/>
  <path id="Tracé_333" data-name="Tracé 333" d="M21.783,25.547l.1-.371A18.582,18.582,0,0,1,35.229,12.5l.114-.031-.111-.457-.118.025a19.074,19.074,0,0,0-13.683,13l-.15.561.454.126Z" transform="translate(4.502 2.542)" fill="#fff"/>
  <path id="Tracé_334" data-name="Tracé 334" d="M24.215,26.024l.061-.234.07-.256A15.443,15.443,0,0,1,35.427,15.012l.113-.029-.108-.46-.119.029A15.914,15.914,0,0,0,23.892,25.4l-.137.5.114.029Z" transform="translate(5.025 3.072)" fill="#fff"/>
  <path id="Tracé_335" data-name="Tracé 335" d="M26.7,26.331l.067-.256.047-.176a12.321,12.321,0,0,1,8.8-8.385l.115-.027-.111-.463-.111.031a12.784,12.784,0,0,0-9.148,8.706l-.055.208-.065.228.118.033Z" transform="translate(5.551 3.602)" fill="#fff"/>
  <path id="Tracé_336" data-name="Tracé 336" d="M29.178,26.628l.1-.37a9.178,9.178,0,0,1,6.54-6.241l.111-.029-.109-.46-.114.027a9.669,9.669,0,0,0-6.883,6.569l-.047.173-.052.2.114.029Z" transform="translate(6.076 4.131)" fill="#fff"/>
  <path id="Tracé_337" data-name="Tracé 337" d="M31.664,26.931l.045-.182.035-.126a5.982,5.982,0,0,1,4.263-4.106l.111-.029-.107-.459-.116.029a6.541,6.541,0,0,0-4.607,4.429l-.081.32.111.027Z" transform="translate(6.601 4.66)" fill="#fff"/>
  <path id="Tracé_338" data-name="Tracé 338" d="M49.524,0H37.466l-.052.008A33.434,33.434,0,0,0,9.761,24.256l2.755.686a30.577,30.577,0,0,1,37-21.464l.012,0V.563l-.008,0Z" transform="translate(2.065)" fill="#fff"/>
  <path id="Tracé_339" data-name="Tracé 339" d="M44.029,2.912A29.571,29.571,0,0,0,23.414,11.85a29.586,29.586,0,0,0-8.936,20.617,29.365,29.365,0,0,0,3.773,14.417,43.634,43.634,0,0,1-7.676.042l0,.017-.081-.006q-.369-.033-.7-.067c-.63-.064-1.158-.133-1.559-.191l-.055-.008-.319-.05-.075-.012-.22-.038-.047-.008-.128-.023-.057-.012C4.257,45.962.008,45.025,0,45.019V51.3c.017.011,9.643,4.421,15.447,3.756,0,0-4.679,2.747-15.447,3.41v3.236L39.563,61.7A29.586,29.586,0,0,1,21.416,51.453,39.107,39.107,0,0,1,6.006,49.675,48.9,48.9,0,0,0,19.3,49.66l.068-.008c.2-.024.395-.047.6-.074a67.306,67.306,0,0,0,7.17-1.31c.525-.124,1.046-.235,1.558-.337l.291-.053c.2-.041.4-.081.595-.114.31-.056.612-.105.917-.155a1.36,1.36,0,0,0,.155-.021c.328-.05.657-.1.981-.138.015,0,.031,0,.047-.006a44.446,44.446,0,0,1,18.2,1.322s-7.258-1.7-19.363,1.087a33.827,33.827,0,0,1-3.888.932,25.257,25.257,0,0,0,23.8,6.149c-5.048-3.309-14.349-4.656-14.349-4.656a35.443,35.443,0,0,1,15.508.416l0,0,0-6.5v-.668a44.94,44.94,0,0,0-13.814-1.605c-.608.029-1.176.062-1.723.1l-.035,0-.55.041-.33.024-.32.028-.608.056-.018,0v-.006c-.16.016-.32.038-.479.055s-.317.035-.476.055c-.3.036-.612.074-.922.116-.33.045-.664.092-1.009.145-.065.01-.126.017-.193.028-.115.021-.411.067-.446.073l-.151.025-.365.062-.437.076c-.161.028-.326.058-.493.088l-.322.059-.648.121-.151.029c-1.471.281-3.185.632-5.3,1.076a25.133,25.133,0,0,1-4.061-13.715c0-13.238,12.055-25.293,25.291-25.293a25.251,25.251,0,0,1,7.558,1.153l.011,0V3.9l-.011,0a29.563,29.563,0,0,0-7.558-.983" transform="translate(0 0.616)" fill="#fff"/>
</svg>