<?xml version="1.0" standalone="no"?>
<!DOCTYPE svg PUBLIC "-//W3C//DTD SVG 1.1//EN" "http://www.w3.org/Graphics/SVG/1.1/DTD/svg11.dtd">
<svg xmlns="http://www.w3.org/2000/svg" width="71.66899871826172" height="62.465999603271484" viewBox="0 0 71.669 62.466">
  <g id="icone-tourisme-handicap" transform="translate(-126.157 -0.534)">
    <path id="Tracé_388" data-name="Tracé 388" d="M157.479,16.332S149.58,4.045,137.547.441c0,0-5.8,9.053-22.124,18.755,0,0,13.332-5.638,22.624-15.254,6.621,1.387,12.812,5.769,19.432,12.39" transform="translate(24.416 0.093)" fill="#fff"/>
    <path id="Tracé_389" data-name="Tracé 389" d="M122.422,42.571a68.8,68.8,0,0,0-1.925-28.02c3.735,18.329-.357,25.428-.357,25.428a6.9,6.9,0,0,1,2.283,2.593" transform="translate(25.414 3.078)" fill="#fff"/>
    <path id="Tracé_390" data-name="Tracé 390" d="M114.186,47.088c-.55,0-.751-.008-1.156-.021a.974.974,0,0,1,.024.193,1.011,1.011,0,0,1-.024.2c.271-.032.642-.058.817-.058a2.876,2.876,0,0,1,.013.391V48.9c0,.5-.011.841-.034,1.231a3.575,3.575,0,0,1,.36-.018,3.623,3.623,0,0,1,.368.018c-.027-.39-.038-.735-.038-1.231V47.792a3.512,3.512,0,0,1,.011-.391,7.756,7.756,0,0,1,.79.058,1.11,1.11,0,0,1-.023-.2,1.07,1.07,0,0,1,.023-.193c-.376.012-.575.021-1.132.021" transform="translate(23.91 9.957)" fill="#fff"/>
    <path id="Tracé_391" data-name="Tracé 391" d="M118.411,48.608a1.522,1.522,0,0,0-1.686-1.59,1.6,1.6,0,0,0-1.708,1.593,1.513,1.513,0,0,0,1.7,1.593,1.616,1.616,0,0,0,1.7-1.6m-1.731,1.323c-.5,0-.934-.331-.934-1.281,0-.764.357-1.38.968-1.38.571,0,.968.472.968,1.244,0,.968-.468,1.416-1,1.416" transform="translate(24.33 9.946)" fill="#fff"/>
    <path id="Tracé_392" data-name="Tracé 392" d="M118.638,47.091a2.861,2.861,0,0,1-.367-.027c0,.151.015.449.015.918,0,.321-.01.561-.01,1.043,0,.835.595,1.169,1.353,1.169.866,0,1.317-.425,1.317-1.461,0-.767.029-1.405.057-1.67a.956.956,0,0,1-.448,0c.024.411.034.819.034,1.226,0,.83-.046,1.6-.761,1.6-.579,0-.889-.183-.889-1.267a15.614,15.614,0,0,1,.059-1.56,2.765,2.765,0,0,1-.36.027" transform="translate(25.019 9.956)" fill="#fff"/>
    <path id="Tracé_393" data-name="Tracé 393" d="M121.1,50.137a3.433,3.433,0,0,1,.368-.018,3.181,3.181,0,0,1,.36.018c-.021-.391-.031-.735-.031-1.232v-.184h.039l.8,1.416c.133-.011.271-.018.4-.018s.263.007.4.018c-.328-.5-.663-1.01-.95-1.513a.807.807,0,0,0,.689-.819.693.693,0,0,0-.287-.586,1.184,1.184,0,0,0-.772-.151c-.3,0-.5.023-.652.023s-.267-.015-.368-.023c.032.391.036.733.036,1.233v.6c0,.5,0,.841-.036,1.232m.712-2.817c.485,0,.688.057.688.582a.558.558,0,0,1-.6.638c-.034,0-.068-.007-.1-.01,0-.4,0-.806.016-1.21" transform="translate(25.618 9.957)" fill="#fff"/>
    <path id="Tracé_394" data-name="Tracé 394" d="M123.364,50.136c.1,0,.217-.018.362-.018s.269.013.365.018c-.025-.391-.036-.735-.036-1.231v-.6c0-.5.011-.843.036-1.235a2.738,2.738,0,0,1-.727,0c.023.391.032.733.032,1.235v.6c0,.5-.008.84-.032,1.231" transform="translate(26.096 9.956)" fill="#fff"/>
    <path id="Tracé_395" data-name="Tracé 395" d="M125.237,49.931a.586.586,0,0,1-.615-.48h-.084a4.383,4.383,0,0,1-.132.563,1.3,1.3,0,0,0,.718.19,1.046,1.046,0,0,0,1.182-1.007c0-1.007-1.354-.844-1.354-1.5a.431.431,0,0,1,.462-.4.53.53,0,0,1,.538.386h.07a4.483,4.483,0,0,1,.141-.44,1.138,1.138,0,0,0-.729-.222.936.936,0,0,0-1,.953c0,1.01,1.328.832,1.328,1.5a.461.461,0,0,1-.522.454" transform="translate(26.317 9.946)" fill="#fff"/>
    <path id="Tracé_396" data-name="Tracé 396" d="M126.835,48.115h.011c.333.672.654,1.351.967,2.021a.534.534,0,0,1,.086-.01.452.452,0,0,1,.084.01c.321-.688.652-1.374.984-2.062h.01c.071.688.149,1.444.178,2.062.125-.012.25-.023.37-.023a3.565,3.565,0,0,1,.36.023c-.109-.629-.265-2.047-.38-3.069a1.045,1.045,0,0,1-.19.023,1.007,1.007,0,0,1-.188-.023c-.321.7-.688,1.462-1.038,2.125-.322-.626-.7-1.421-1.027-2.125a.908.908,0,0,1-.177.023.879.879,0,0,1-.183-.023c-.125,1.021-.274,2.046-.464,3.069a1.318,1.318,0,0,1,.211-.023,1.332,1.332,0,0,1,.212.023c.046-.67.082-1.348.177-2.021" transform="translate(26.704 9.957)" fill="#fff"/>
    <path id="Tracé_397" data-name="Tracé 397" d="M130.585,50.113c.41,0,.615.018.78.021a.785.785,0,0,1-.018-.19.944.944,0,0,1,.018-.2,8.634,8.634,0,0,1-1.023.057c-.007-.177-.013-.367-.013-.552s.006-.386.006-.574c.338,0,.67.016,1.012.041a1.087,1.087,0,0,1-.024-.185.811.811,0,0,1,.024-.2c-.342.018-.626.027-1.012.036,0-.326-.006-.646.018-.97.138,0,.668.032,1.008.05a1.051,1.051,0,0,1-.021-.2.919.919,0,0,1,.021-.188c-.119.015-.494.025-.93.025-.265,0-.529-.021-.79-.023.023.391.031.735.031,1.233l0,.6c0,.5-.011.841-.034,1.231.1,0,.213-.018.944-.023" transform="translate(27.424 9.956)" fill="#fff"/>
    <path id="Tracé_398" data-name="Tracé 398" d="M132.377,49.475a.761.761,0,0,0,.847.715,1.641,1.641,0,0,0,.993-.35l.217.292c.122,0,.24-.018.365-.018.16,0,.326.013.543.018-.2-.2-.469-.493-.66-.715a6.149,6.149,0,0,0,.622-.783,2.63,2.63,0,0,1-.247-.256,4.278,4.278,0,0,1-.531.859c-.242-.276-.474-.556-.7-.853.391-.241.566-.47.566-.756,0-.355-.3-.543-.716-.543a.727.727,0,0,0-.821.709,1.292,1.292,0,0,0,.325.731c-.48.247-.8.486-.8.95m1.365-2.188a.322.322,0,0,1,.319.322.846.846,0,0,1-.355.613,1.239,1.239,0,0,1-.281-.618.3.3,0,0,1,.317-.317m-.435,1.413c.251.326.52.658.785.98a.68.68,0,0,1-.477.176.628.628,0,0,1-.645-.618.672.672,0,0,1,.337-.538" transform="translate(28.003 9.96)" fill="#fff"/>
    <path id="Tracé_399" data-name="Tracé 399" d="M136.2,50.136a3.583,3.583,0,0,1,.365-.018,3.648,3.648,0,0,1,.366.018c-.029-.391-.038-.735-.038-1.231v-.256c.228-.011.452-.016.678-.016s.446.011.676.016v.256c0,.5-.011.84-.038,1.231a3.623,3.623,0,0,1,.368-.018c.143,0,.267.008.365.018-.028-.391-.039-.735-.039-1.231v-.6c0-.5.011-.843.039-1.235-.1.008-.222.024-.365.024s-.271-.016-.368-.024c.027.389.038.728.038,1.224-.167,0-.355.011-.67.011s-.533-.006-.685-.011c0-.5.008-.835.038-1.224-.1.008-.219.024-.366.024s-.269-.016-.365-.024c.025.391.036.735.036,1.235v.6c0,.5-.011.84-.036,1.231" transform="translate(28.812 9.956)" fill="#fff"/>
    <path id="Tracé_400" data-name="Tracé 400" d="M139.55,49.23c.156-.007.31-.01.462-.01.193,0,.38,0,.571.01.113.3.217.608.305.911.122-.006.256-.024.38-.024s.246.018.389.024c-.336-.726-.855-2.077-1.236-3.093a.986.986,0,0,1-.17.023,1.026,1.026,0,0,1-.167-.023c-.385,1.016-1.053,2.6-1.27,3.093.086-.006.154-.024.224-.024s.141.018.208.024a8.357,8.357,0,0,1,.3-.911m.534-1.319c.144.348.267.694.394,1.059h-.811c.125-.365.265-.711.417-1.059" transform="translate(29.365 9.953)" fill="#fff"/>
    <path id="Tracé_401" data-name="Tracé 401" d="M141.7,50.118a1.042,1.042,0,0,1,.206.018c-.013-.162-.023-.414-.023-1.124,0-.336,0-.706.01-1.035.681.717,1.335,1.439,1.946,2.159a.7.7,0,0,1,.172-.018.906.906,0,0,1,.185.018c0-1.184,0-1.776.07-3.07a1.083,1.083,0,0,1-.2.024.981.981,0,0,1-.2-.024c.028.2.028,1.411.028,2.118-.649-.706-1.288-1.414-1.93-2.118a1.046,1.046,0,0,1-.2.024,1.007,1.007,0,0,1-.2-.024c.007.214.023.486.023.887,0,.907-.07,2.058-.088,2.183a1.034,1.034,0,0,1,.2-.018" transform="translate(29.933 9.956)" fill="#fff"/>
    <path id="Tracé_402" data-name="Tracé 402" d="M144.371,50.137a3.309,3.309,0,0,1,.365-.018c.229,0,.534.018.978.018a1.541,1.541,0,0,0,1.539-1.622c0-1.124-.7-1.448-1.713-1.448-.394,0-.608.023-.8.023-.149,0-.264-.015-.365-.023.023.391.033.733.033,1.233v.6c0,.5-.01.841-.033,1.232m.691-1.928c0-.24,0-.783.007-.869a4.221,4.221,0,0,1,.463-.021c.612,0,1.016.451,1.016,1.184,0,.926-.42,1.38-1.088,1.38-.185,0-.3-.011-.391-.013-.007-.084-.007-.629-.007-.869Z" transform="translate(30.54 9.957)" fill="#fff"/>
    <path id="Tracé_403" data-name="Tracé 403" d="M147.24,50.136c.1,0,.219-.018.367-.018s.269.013.366.018c-.027-.391-.038-.735-.038-1.231v-.6c0-.5.011-.843.038-1.235a3.1,3.1,0,0,1-.366.024,3.179,3.179,0,0,1-.367-.024c.028.391.039.733.039,1.235v.6c0,.5-.011.84-.039,1.231" transform="translate(31.147 9.956)" fill="#fff"/>
    <path id="Tracé_404" data-name="Tracé 404" d="M150.028,47.293a.909.909,0,0,1,.766.4h.062a1.467,1.467,0,0,1,.105-.453,2.008,2.008,0,0,0-.912-.222,1.6,1.6,0,0,0-1.768,1.7,1.487,1.487,0,0,0,1.644,1.488,1.989,1.989,0,0,0,.907-.194,1.441,1.441,0,0,1,.1-.38l-.058-.034a1.182,1.182,0,0,1-.807.334c-.506,0-1.053-.361-1.053-1.282,0-.94.538-1.356,1.016-1.356" transform="translate(31.367 9.946)" fill="#fff"/>
    <path id="Tracé_405" data-name="Tracé 405" d="M152,47.071a.871.871,0,0,1-.166-.024c-.384,1.018-1.052,2.6-1.266,3.093.085,0,.147-.023.217-.023s.141.018.208.023a8.357,8.357,0,0,1,.305-.91q.231-.011.462-.011c.19,0,.379,0,.568.011.113.3.217.608.311.91.125,0,.253-.023.378-.023s.25.018.389.023c-.334-.724-.859-2.075-1.237-3.093a.842.842,0,0,1-.17.024m-.584,1.9c.128-.366.267-.712.418-1.059.141.347.265.693.394,1.059Z" transform="translate(31.851 9.952)" fill="#fff"/>
    <path id="Tracé_406" data-name="Tracé 406" d="M154.245,47.067c-.213,0-.443.023-.652.023-.147,0-.267-.015-.362-.023.025.391.036.733.036,1.233v.6c0,.5-.011.841-.036,1.232a3.228,3.228,0,0,1,.362-.018,3.291,3.291,0,0,1,.367.018c-.034-.443-.036-.887-.036-1.336h.227c.665,0,1.149-.271,1.149-.949a.731.731,0,0,0-.28-.606,1.207,1.207,0,0,0-.774-.179m-.321,1.507c0-.414,0-.831.011-1.249.044,0,.111,0,.188,0,.25,0,.469.148.469.6a.581.581,0,0,1-.668.654" transform="translate(32.414 9.957)" fill="#fff"/>
    <rect id="Rectangle_1483" data-name="Rectangle 1483" width="41.464" height="0.303" transform="translate(141.452 62.697)" fill="#fff"/>
    <path id="Tracé_407" data-name="Tracé 407" d="M104.13,31.116c48.6,40.234,71.884-2.881,71.667-2.641-31.747,35.006-71.667,2.641-71.667,2.641" transform="translate(22.027 6.023)" fill="#fff"/>
    <path id="Tracé_408" data-name="Tracé 408" d="M137.11,37h11.118V26.1H137.11Zm4.371-7.931c.154-.07.271-.073.419-.144-.08-.4-.164-.8-.242-1.2,1.315,0,.5.955,1.135,1.219.5.08,1,.164,1.51.245a5.994,5.994,0,0,1,3.364,2.335c.688,1.161-2.283,2.84-3.116,3.082-.906.265-.056.863-.239,1.408-.015.042-.025.086-.075.086h-.568v.036c-.174-.367-.506-2.508-.775-2.495-.485.021.483,1.293-.46,1.293-.108-.466-.214-1.322-.653-1.562-.033-.021-.1-.084-.1-.032-.021,0-.006.036-.024.036.024.128.582,1.951-.177,1.3-.251-.218-.251-.745-.334-1.05q-.374-1.45-.75-2.9c-.056-.13-.1-.26-.155-.4-.084.079-.164.154-.247.23-.093.265.107.7.17.941.17.654.342,1.313.509,1.974.075.376.159.76.24,1.133h-.034c-.165-.118-.4-.1-.514-.29a3.8,3.8,0,0,1-.285-1.015c-.133-.514-.263-1.03-.4-1.546a7.564,7.564,0,0,1-.287-.9.385.385,0,0,1-.04.036h-.03a.593.593,0,0,0-.181.319c.059.285.12.563.185.844.143.574.29,1.156.43,1.73.034.1.065.2.094.29h-.034v.03a1.034,1.034,0,0,1-.506-.3,8.453,8.453,0,0,1-.626-2.1h-.034c-.417.439-.068.825-.034,1.344.008.05.063.217,0,.217,0,.012-.059-.011-.073-.011-.229-.457-.869-.731-.918-1.276-.1-1.163,2.833-2.727,3.855-2.926" transform="translate(29.004 5.521)" fill="#fff"/>
    <path id="Tracé_409" data-name="Tracé 409" d="M141.3,29.692c.258-.222-.1-.487-.276-.559-.016.047-.029.095-.041.142-.038.161.109.594.317.417" transform="translate(29.821 6.163)" fill="#fff"/>
    <path id="Tracé_410" data-name="Tracé 410" d="M140.479,30.608c.07-.118.141-.242.206-.362a.9.9,0,0,0-.344-.907l-.181.07v.036c.094.391.191.777.285,1.163Z" transform="translate(29.649 6.206)" fill="#fff"/>
    <path id="Tracé_411" data-name="Tracé 411" d="M143.1,31.884l-.355.675c-.045.181.052.334.052.5h.039a2.18,2.18,0,0,0,.178-3.43,2.576,2.576,0,0,0-1.061-.5.488.488,0,0,0,.168.6c.773.559,1.31,1.018.979,2.152" transform="translate(30.019 6.163)" fill="#fff"/>
    <path id="Tracé_412" data-name="Tracé 412" d="M143.98,32.006c-.081.248-.274.457-.274.746.023-.013.047-.024.068-.034,0-.013.028,0,.028-.011a3.6,3.6,0,0,0,1.794-1.419c.016-.007.036-.013.053-.021a3.688,3.688,0,0,0-1.907-1.695,1.124,1.124,0,0,0-.11.107.158.158,0,0,1,.036.032,2.714,2.714,0,0,1,.311,2.295" transform="translate(30.384 6.256)" fill="#fff"/>
    <path id="Tracé_413" data-name="Tracé 413" d="M136.176,14.218H125.055V25.127h11.121Zm-9.417,9.4a2.474,2.474,0,0,1-.991.024c-.013-.038-.025-.07-.036-.107l2.976-2.995a3.951,3.951,0,0,1,.88-.787c.127.159.383.342.328.579-.045.138-2.942,3.177-3.156,3.286m7.989-8.248A14.518,14.518,0,0,1,133.223,17a2.369,2.369,0,0,1,.271.889c.3,1.659-1.3,2.56-1.867,3.859-.287.655-.351,1.756-.878,2.246a1.527,1.527,0,0,1-1.615.3,1.334,1.334,0,0,1-.821-1.109c.013-.068.027-.133.036-.2.59-.391.832.441,1.307.5a.613.613,0,0,0,.542-.178c.038-.044.065-.086.1-.132a3.035,3.035,0,0,0,.216-.934,4.692,4.692,0,0,1,.38-1.061A7.342,7.342,0,0,1,131.632,20a4.973,4.973,0,0,0,.9-1.228c.013-.039.025-.075.036-.118a1.783,1.783,0,0,0-.351-1.528,1.7,1.7,0,0,0-2.864.552c-.133.339.016.83-.136,1.172-.063.149-.4.552-.584.552a3.546,3.546,0,0,1-.271-1.1,2.726,2.726,0,0,1,2.412-2.684,2.626,2.626,0,0,1,1.5.353c.185.122.391.355.641.355a3.476,3.476,0,0,1,.975-.945c.144-.028.29-.055.434-.086.073,0,.391-.028.391.04h.036ZM131,17.825c-.211-.018-.328.2-.5.2v.038h-.034c-.109-.144-.224-.287-.333-.428-.214-.386.5-.54.725-.6a1.226,1.226,0,0,1,1.127,1.763c-.055.1-.165.26-.287.279-.242.032-.317-.378-.487-.378.145-.281.274-.835-.214-.871" transform="translate(26.454 3.008)" fill="#fff"/>
    <path id="Tracé_414" data-name="Tracé 414" d="M125.051,36.995h11.123v-10.9H125.051Zm3.372-9.944a.725.725,0,0,1,.647-.519c0-.013.107,0,.107-.013a.882.882,0,0,1,.67,1.4c-.145.148-.3.294-.448.435a4.229,4.229,0,0,0,.058,1.156c.012.167-.017.412.122.521a10.329,10.329,0,0,0,1.989.11c.42.065.172.889.162.889a8.17,8.17,0,0,1-1.558.091c-.127.024-.417-.016-.548.006.032.145.016.378.131.482s.389.07.552.07a10.017,10.017,0,0,1,2.436.1,13.262,13.262,0,0,1,.984,2.2c.018.034.372.754.372.579l.84-.323h.031c.211.082.384.68.454.68v.035c-.6.25-1.205.5-1.808.754a.583.583,0,0,1-.039.055c-.506-.378-.939-2.262-1.273-2.911-.036-.069-.084-.263-.188-.263l-3.3-.068c-.039-.459-.088-.928-.136-1.392-.084-.939-.172-1.878-.258-2.819a3.324,3.324,0,0,1,0-1.253m-.339,3.477s.167-.154.3.181a.758.758,0,0,1-.045.5.488.488,0,0,1-.179.247c-.029.027-.076.081-.076.081a2.521,2.521,0,0,0-.756,1.844,2.49,2.49,0,0,0,2.488,2.493,2.531,2.531,0,0,0,2.347-1.545l.17-.4c.068-.125.1.016.1.016s.156.339.213.466a.557.557,0,0,1,.018.277,2.019,2.019,0,0,1-.458.881,3.287,3.287,0,1,1-4.127-5.044" transform="translate(26.453 5.519)" fill="#fff"/>
    <path id="Tracé_415" data-name="Tracé 415" d="M140.856,24.456a7.926,7.926,0,0,1-1.775-.174c1.729.592,2.456.036,2.467.025l.065-.052.075.047a3.477,3.477,0,0,0,2.785.219c2.163-.626,2.455-3.73,2.481-4.084a2.156,2.156,0,0,0,0-.251c-.008-.183-.019-.417.258-.454.057,0,.073-.025.078-.036a.15.15,0,0,0,.024-.093c0-.021.088-1.733.122-2.441a.906.906,0,0,0-.027-.35l0,.006a.273.273,0,0,1-.172.068.082.082,0,0,1-.036-.006.265.265,0,0,1-.194-.161l-.012-.057a5.128,5.128,0,0,0-.267-2.407h-4.639a4.429,4.429,0,0,1,.277,2.095,9.279,9.279,0,0,0,.391,2.553,2.577,2.577,0,0,0,.282.563.962.962,0,0,1,.274.629,2.332,2.332,0,0,1-.149.482,3.837,3.837,0,0,1-.712.256c-.333.094-.219.334-.219.334l.087.1a.4.4,0,0,1,.041.391.251.251,0,0,1-.276.1,9.674,9.674,0,0,1-1.6-.466c-.326-.164-.2.084-.2.084s.177.4,1.277.921c.514.216.345.346.345.346s-.042.1-.2.081a.419.419,0,0,0-.274.256s-.061.219.059.219c.079,0,.063.26.063.26a2.047,2.047,0,0,1,.007.548c-.07.428-.706.451-.706.451m3.8-7.482a.541.541,0,0,1,.619.525l-.008-.023c-.08-.149-1.371.047-1.371.047.172-.228.184-.465.761-.549m-3.268,4.794a5.971,5.971,0,0,0,3.333.081s.29.1-.078.26a2.316,2.316,0,0,1-1.628.286c-1.2-.137-2.071-.6-1.627-.628" transform="translate(29.421 3.015)" fill="#fff"/>
    <path id="Tracé_416" data-name="Tracé 416" d="M137.14,25.062h11.026V14.254h-.773a5.6,5.6,0,0,1,.247,2.381l.013.016a.224.224,0,0,1,.258-.078c.136.057.188.245.174.6-.034.709-.125,2.419-.125,2.419a.385.385,0,0,1-.07.251.371.371,0,0,1-.237.131c-.055,0-.061,0-.052.2a2.647,2.647,0,0,1,0,.281c-.029.365-.337,3.62-2.647,4.292a3.824,3.824,0,0,1-1.233.208,3.524,3.524,0,0,1-1.685-.417c-.317.208-1.775.834-4.9-1.2Z" transform="translate(29.01 3.015)" fill="#fff"/>
    <path id="Tracé_417" data-name="Tracé 417" d="M140.6,17.085a.533.533,0,0,0-.511-.59c-.574-.016-.626.212-.837.4,0,0,1.294.036,1.346.193v0Z" transform="translate(29.458 3.489)" fill="#fff"/>
  </g>
</svg>